<?xml version="1.0" encoding="UTF-8" standalone="no"?>

<!-- Created with PainterSVG V3.92 -->

<svg xmlns="http://www.w3.org/2000/svg" xmlns:xlink="http://www.w3.org/1999/xlink" xmlns:psvg="http://www.paintersvg.com/namespace.html" id="svg" width="252.4059" height="421.6776" viewBox="0 0 252.4059 421.6776" clip-path="url(#clippath6)">
  <defs>
    <clipPath id="clippath6" clipPathUnits="userSpaceOnUse">
      <path d=" M 0,0 252.4059,0 252.4059,421.6776 0,421.6776 0,0 Z" />
    </clipPath>
  </defs>
  <g transform="matrix(1,0,0,1,0.7897,9.7412)">
    <path id="path14" d=" M 125.2969,8.7097 C 120.8142,6.5145 121.3922,17.5063 118.897,23.9093 118.5002,29.6559 112.1348,26.764 109.2973,29.5092 L 109.2973,46.3087 C 112.7144,45.2791 115.6063,47.5931 116.0971,50.3086 108.0849,103.7137 99.9851,156.942 85.6979,207.1047 67.5859,210.1718 80.3136,238.5211 74.4981,253.1036 L 61.6985,290.7026 C 58.9065,292.9073 53.7003,291.751 49.6988,291.9026 57.7502,335.7219 14.356,385.4783 8.0998,395.9 L 56.4986,395.9 C 60.6421,376.2225 73.9498,356.551 92.4977,346.3012 101.7211,342.0858 114.4503,338.0358 125.2969,337.5015 136.4358,338.0358 149.1635,342.0858 158.496,346.3012 176.9364,356.551 190.242,376.2225 194.0952,395.9 L 242.8939,395.9 C 236.5285,385.4783 193.136,335.7219 201.295,291.9026 197.1859,291.751 191.978,292.9073 188.8953,290.7026 L 176.4956,253.1036 C 170.5709,238.5211 183.3002,210.1718 165.2959,207.1047 150.8994,156.942 142.7996,103.7137 134.8966,50.3086 135.2778,47.5931 138.1717,45.2791 141.6965,46.3087 L 141.6965,29.5092 C 138.7497,26.764 132.3859,29.6559 131.6967,23.9093 129.492,17.5063 130.0719,6.5145 125.2969,8.7097 Z" />
    <path id="path16" d=" M 116.0971,208.3047 125.2969,153.9061 134.8966,208.3047 Z" />
    <path id="path18" d=" M 110.4972,249.1037 C 110.9784,248.9365 103.4566,292.329 103.2974,290.7026 L 147.2963,290.7026 C 147.4291,292.329 139.9057,248.9365 140.4965,249.1037 L 110.4972,249.1037 Z" />
  </g>
</svg>
