<?xml version="1.0" encoding="UTF-8" standalone="no"?>

<!-- Created with PainterSVG V3.92 -->

<svg xmlns="http://www.w3.org/2000/svg" xmlns:xlink="http://www.w3.org/1999/xlink" xmlns:psvg="http://www.paintersvg.com/namespace.html" id="svg" width="393.7829" height="297.1444" viewBox="0 0 393.7829 297.1444" clip-path="url(#clippath21)">
  <defs>
    <clipPath id="clippath21" clipPathUnits="userSpaceOnUse">
      <path d=" M 0,0 393.7829,0 393.7829,297.1444 0,297.1444 0,0 Z" 
  
      />
    </clipPath>
  </defs>
  <path d=" M 66.3559,160.3803 C 63.0218,192.1055 66.6438,224.6418 77.6687,255.4563 L 195.1683,255.5486 C 193.2899,252.509 191.3475,249.5739 189.3231,246.6727 158.2279,202.2636 113.4678,173.2956 64.7214,161.2199 Z M 161.6694,362.1808 C 182.2221,375.6788 204.7825,385.4179 228.2682,391.2359 228.9718,381.6596 229.0823,371.9747 228.5744,362.2607 L 161.5811,362.2383 Z M 85.499,274.4084 C 88.6175,281.0325 92.1016,287.5469 95.9563,293.9244 L 214.3701,294.1353 C 211.849,287.5226 208.9939,280.9509 205.7912,274.4866 L 85.2673,274.4576 Z M 110.7902,315.3877 C 116.975,323.2655 123.6129,330.5993 130.6405,337.3797 L 225.5135,337.2825 C 224.6885,329.9247 223.1327,322.6501 221.2044,315.4316 L 111.0779,315.299 Z M 206.3647,274.6244 C 206.9367,281.1669 207.8017,287.6239 208.9463,293.9827 L 305.7812,294.1353 C 307.3625,287.8167 308.2436,281.2027 308.8178,274.5041 L 206.6739,274.4576 Z M 233.7191,362.1327 C 240.8513,374.625 249.1972,386.3368 258.5928,397.1124 267.4099,386.3024 275.3331,374.5866 282.1591,362.1206 L 233.6131,362.2383 Z M 258.3755,115.1374 C 225.5729,152.8731 205.6266,202.0431 205.5388,255.645 205.5388,255.645 205.5388,255.645 205.5388,255.645 L 309.2849,255.5486 C 309.4486,201.7469 289.4274,152.5878 256.5549,114.8876 Z M 213.8797,315.1501 C 216.0493,322.6975 218.6212,330.0738 221.5701,337.2552 L 293.9379,337.2825 C 296.7404,330.1075 299.2688,322.6935 301.4063,315.114 L 213.5298,315.299 Z M 446.9397,161.629 C 398.425,173.7255 353.8831,202.5625 323.0666,246.4203 321.0143,249.3513 319.0454,252.3152 317.1598,255.3093 L 434.1844,255.5486 C 445.3925,224.7217 448.9782,192.14 445.5916,160.3803 Z M 284.2842,362.2578 C 283.9344,372.4468 284.3062,382.6321 285.3835,392.7341 308.3748,386.229 330.7423,376.0431 351.2006,362.2307 L 284.097,362.2383 Z M 306.5293,274.2297 C 303.3174,280.6881 300.4592,287.2524 297.9496,293.8976 L 416.04,294.1353 C 419.9404,287.7247 423.4521,281.1377 426.5907,274.4448 L 306.9262,274.4576 Z M 291.1432,315.2538 C 289.2352,322.5445 287.723,329.8983 286.6006,337.2845 L 381.8008,337.2825 C 388.8745,330.446 395.4839,323.0817 401.6308,315.1816 L 291.3617,315.299 Z" 
  />
</svg>
