<?xml version="1.0" encoding="UTF-8" standalone="no"?>

<!-- Created with PainterSVG V3.92 -->

<svg xmlns="http://www.w3.org/2000/svg" xmlns:xlink="http://www.w3.org/1999/xlink" 
id="svg" width="256" height="256" viewBox="0 0 256 256" clip-path="url(#headphonesclip)">
  <defs>
    <clipPath id="headphonesclip" clipPathUnits="userSpaceOnUse">
      <path d=" M 0,0 256,0 256,256 0,256 0,0 Z" />
    </clipPath>
  </defs>
    <g transform="matrix(1,0,0,1,-2.003,-1.999)">
      <path d=" M 212.64,205.082 C 203.696,214.62 188.936,228.234 171.276,233.258 170.444,233.496 169.728,233.934 169.042,234.412 166.524,231.832 163,230.22 159.108,230.22 151.442,230.22 145.214,236.438 145.214,244.114 145.214,251.768 151.442,257.998 159.108,257.998 165.316,257.998 170.518,253.91 172.308,248.284 172.672,248.336 173.016,248.472 173.4,248.472 174.098,248.472 174.824,248.378 175.522,248.172 199.892,241.244 218.634,222.086 230.614,208.276 230.77,208.108 207.566,203.542 212.64,205.082 Z" />
      <path d=" M 130.02,2 C 74.272,2 25.38,48.23 25.38,100.94 25.38,101.128 40.992,101.596 40.992,100.94 40.992,53.128 87.992,17.402 130.022,17.402 172.05,17.402 219.04,53.128 219.04,100.94 219.04,101.626 234.652,101.128 234.652,100.94 234.648,48.23 185.746,2 130.02,2 Z" />
      <path d=" M 40.782,103.146 C 40.938,102.532 41.166,101.274 41.166,101.274 L 25.68,101.274 25.786,101.794 C 22.946,101.846 22.508,102.812 22.508,102.812 18.066,109.458 14.572,117.498 12.274,126.484 9.716,136.562 8.664,147.848 9.55,159.642 10.424,171.446 13.128,182.43 17.174,192.028 20.752,200.556 25.422,207.972 30.82,213.88 L 30.852,213.922 C 30.852,213.922 34.606,213.63 37.102,213.456 39.484,213.278 41.024,211.812 41.024,209.45 L 41.512,209.524 C 49.936,210.554 55.522,204.936 54.898,196.596 52.962,170.584 49.178,120.036 48.626,112.538 48.208,106.87 45.576,103.51 40.782,103.146 M 247.712,125.008 C 245.414,116.01 241.92,107.962 237.488,101.304 L 218.59,101.71 C 218.59,101.71 211.768,105.61 211.362,111.04 210.812,118.56 207.046,169.18 205.102,195.232 204.644,201.472 212.716,207.744 212.716,207.744 L 231.978,208.576 C 236.596,203.034 239.642,198.216 242.836,190.656 246.862,181.046 249.564,170.042 250.45,158.216 251.342,146.412 250.292,135.118 247.712,125.008 Z" />
      <path d=" M 48.624,112.538 C 48.208,106.87 45.576,103.51 40.78,103.146 40.936,102.532 41.164,101.274 41.164,101.274 L 37.15,101.274 C 23.932,147.858 37.078,198.968 40.634,211.22 40.862,210.698 41.018,210.128 41.018,209.45 L 41.506,209.524 C 49.93,210.554 55.516,204.936 54.892,196.596 52.96,170.584 49.176,120.036 48.624,112.538 Z" />
      <path d=" M 211.362,111.04 C 210.812,118.56 207.046,169.18 205.102,195.232 204.644,201.472 212.716,207.744 212.716,207.744 212.716,207.744 214.784,207.86 217.552,207.994 221.994,191.55 233.038,143.894 225.072,101.576 L 218.592,101.71 C 218.59,101.71 211.768,105.61 211.362,111.04 Z" />
    </g>
</svg>
