<?xml version="1.0" encoding="UTF-8" standalone="no"?>

<!-- Created with PainterSVG V3.92 -->

<svg xmlns="http://www.w3.org/2000/svg" xmlns:xlink="http://www.w3.org/1999/xlink" id="tornado" width="256" height="256" viewBox="0 0 256 256" clip-path="url(#clippath22)">
  <defs>
    <clipPath id="clippath22" clipPathUnits="userSpaceOnUse">
      <path d=" M 0,0 256,0 256,256 0,256 0,0 Z" />
    </clipPath>
  </defs>
  <g transform="matrix(1,0,0,1,-2,-2)">
    <path d=" M 65.844,183.812 C 32.174,183.812 8.702,195.226 8.702,205.482 8.702,205.92 8.806,206.354 8.886,206.79 17.252,203.166 28.494,200.992 41.25,200.992 68.4,200.992 88.868,210.744 88.868,223.684 88.868,224.212 88.776,224.726 88.706,225.242 109.656,221.574 122.984,213.198 122.984,205.482 122.986,195.226 99.514,183.812 65.844,183.812 M 22.33,239.016 C 8.99,239.016 2,243.544 2,245.102 2,246.672 8.99,251.188 22.33,251.188 35.67,251.188 42.66,246.672 42.66,245.102 42.66,243.542 35.67,239.016 22.33,239.016 M 114.104,101.126 C 56.184,101.126 17.276,121.02 17.276,139.598 17.276,142.304 18.192,145.03 19.784,147.724 36.676,137.398 63.838,130.786 95.124,130.786 141.196,130.786 178.476,145.052 186.888,164.536 202.152,157.42 210.92,148.378 210.92,139.598 210.922,121.02 172.014,101.126 114.104,101.126 M 135.878,8.812 C 68.458,8.812 13.78,31.962 13.78,60.51 13.78,66.756 16.53,72.716 21.322,78.252 36.426,57.692 79.23,43.206 131.1,43.206 187.794,43.206 233.75,60.488 244.432,84.12 253.06,77.036 258,69.026 258,60.51 258,31.962 203.324,8.812 135.878,8.812 Z" />
    <path d=" M 41.25,209.758 C 17.55,209.758 2.422,218.01 2.422,223.684 2.422,226.158 5.436,229.08 10.616,231.626 23.486,229.046 39.898,230.974 47.37,237.334 67.482,236.072 80.1,228.842 80.1,223.686 80.102,218.01 64.962,209.758 41.25,209.758 M 131.1,51.972 C 73.134,51.972 24.164,71.558 24.164,94.73 24.164,100.036 26.846,105.136 31.508,109.892 50.704,99.142 80.284,92.37 114.104,92.37 159.418,92.37 197.134,104.54 212.376,122.132 228.282,114.636 238.036,105.044 238.036,94.73 238.038,71.558 189.066,51.972 131.1,51.972 M 95.126,139.552 C 44.402,139.552 10.32,156.81 10.32,172.934 10.32,176.97 12.464,181.07 16.44,184.956 28.324,178.814 45.746,175.044 65.846,175.044 101.614,175.044 128.948,186.906 131.504,203.018 161.438,197.242 179.924,184.798 179.924,172.934 179.922,156.81 145.85,139.552 95.126,139.552 Z" />
  </g>
</svg>
