<?xml version="1.0" encoding="UTF-8" standalone="no"?>

<svg id="svg" width="256" height="256" viewBox="0 0 256 256" clip-path="url(#clippath23)" xmlns="http://www.w3.org/2000/svg" xmlns:xlink="http://www.w3.org/1999/xlink">
  <defs>
    <clipPath id="clippath23" clipPathUnits="userSpaceOnUse">
      <path d=" M 0,0 256,0 256,256 0,256 0,0 Z" />
    </clipPath>
  </defs>
  <g transform="matrix(1,0,0,1,-6.868,-1.567)">
    <path d=" M 203,140 198.764,142.97 C 198.388,160.908 194.16,192.86 169.258,232.066 L 175.864,236.558 C 189.914,211.988 203.326,178.262 203,140 Z" />
    <path d=" M 208.856,124.796 C 208.848,124.762 208.848,124.726 208.848,124.7 223.736,116.914 246.026,110.824 251.13,130.204 255.682,118.88 251.618,108.536 243.982,103.546 235.02,79.36 209.538,81.204 202.374,102.48 204.68,78.688 190.134,58.696 175.83,72.126 179.814,74.136 184.272,79.046 187.932,85.634 174.216,75.376 155.096,81.09 149.54,97.508 171.122,91.916 182.672,104.768 190.554,116.618 156.294,89.706 135.936,123.834 140.12,140.272 150.528,126.858 165.11,123.87 177.492,124.142 166.414,127.688 158.192,140.044 168.326,169.7 172.95,161.548 180.604,140.114 192.102,132.234 192.32,133.238 192.818,134.182 193.64,134.898 193.798,135.038 193.964,135.142 194.138,135.258 192.942,137.294 193.29,139.942 195.116,141.55 196.182,142.502 197.538,143.192 198.884,143.052 201.732,142.738 202.09,141.024 202.842,140.01 202.886,139.942 202.99,139.748 203.026,139.67 204.65,139.932 206.434,139.346 207.622,138.018 207.798,137.826 207.946,137.59 208.084,137.382 222.842,155.128 220.404,171.38 212.304,184.59 239.206,168.042 234.236,148.058 222.116,136.202 235.292,143.472 247.814,155.528 241.942,172.55 267.032,152.222 249.154,114.756 208.856,124.796 M 207.092,120.846 C 206.968,120.716 206.848,120.594 206.708,120.47 206.454,120.242 206.174,120.05 205.896,119.866 210.194,110.99 220.95,87.992 237.43,100.826 227.904,98.836 215.916,103.862 207.092,120.846 Z" />
    <path d=" M 90.376,95.718 C 91.548,99.51 3.312,102.368 94.064,104.002 95.784,107.742 99.366,113.614 101.902,131.044 104.418,148.45 116.258,155.064 121.658,156.444 122.592,153.07 123.658,141.502 118.198,118.174 115.078,104.824 109.346,95.204 103.666,88.196 103.694,88.17 103.728,88.144 103.764,88.118 105.362,89.41 107.022,90.512 108.604,91.368 111.006,84.868 110.256,79.442 108.866,74.226 112.554,80.726 110.894,88.704 110.194,92.154 111.094,92.574 111.96,92.888 112.73,93.108 113.018,93.186 113.324,93.282 113.62,93.378 114.206,91.35 115.184,87.838 115.578,85.812 116.634,90.398 115.614,92.96 115.288,94.226 117.464,95.214 120.532,96.708 122.846,98.43 124.498,94.882 125.388,88.198 125.764,84.318 126.84,89.324 125.136,95.774 124,99.32 126.472,101.338 128.848,103.734 130.744,106.398 135.568,113.212 137.646,115.642 142.548,118.044 150.002,111.412 152.604,94.234 134.692,82.168 124.724,75.458 115.662,72.8 108.454,72.094 108.096,69.936 107.44,67.802 106.436,65.898 115.882,62.708 126.638,63.652 127.492,69.568 128.872,79.224 143.918,87.374 147.188,82.168 162.102,50.31 145.956,35.292 127.362,41.206 135.208,36.208 142.46,28.834 145.152,21.696 116.014,16.016 101.108,40.464 93.934,59.268 93.584,59.198 93.242,59.146 92.892,59.11 94.272,53.072 94.834,44.666 92.56,33.22 87.86,9.75 77.714,1.134 58.274,2.068 61.584,10.028 66.646,20.818 69.302,29.138 70.14,31.724 71.686,36.084 73.548,41.082 70.436,40.566 67.108,40.742 63.92,41.816 61.204,40.104 58.268,38.584 55.086,37.386 36.616,30.422 27.764,31.706 25.248,32.894 26.778,39.744 32.884,54.808 46.548,58.04 47.738,58.33 48.846,58.626 49.904,58.922 49.73,59.604 49.564,60.302 49.424,61.036 50.448,60.994 51.748,60.53 53.242,59.952 61.91,62.888 65.57,66.244 68.052,68.016 68.934,68.654 70.254,69.86 71.93,71.04 69.004,69.782 65.638,68.55 62.18,67.518 53.216,64.844 38.946,61.594 25.56,76.29 12.19,90.996 27.98,106.208 31.99,108.138 30.626,95.914 42.608,86.836 58.57,85.944 59.452,85.892 60.3,85.822 61.12,85.734 56.288,89.072 52.244,93.442 50.18,98.85 45.716,110.558 45.366,125.342 61.25,137.444 66.23,131.746 67.254,128.462 69.116,113.8 70.042,106.608 70.434,102.484 82.232,93.302 82.914,92.768 83.532,92.254 84.118,91.746 L 90.376,95.718 Z" />
    <path d=" M 87.754,104.876 C 88.4,101.896 89.336,98.89 90.34,95.832 89.284,90.904 84.12,91.752 84.12,91.752 84.128,96.296 83.84,100.97 82.87,104.702 78.468,121.942 71.52,146.608 65.964,172.47 61.902,191.368 62.18,219.434 62.696,239.828 L 75.13,237.084 C 71.844,197.722 70.428,181.322 75.978,157.434 78.352,147.122 83.762,123.084 87.754,104.876 Z" />
    <path d=" M 257.296,258 C 225.754,234.524 180.398,219.8 130,219.8 79.602,219.8 34.254,234.524 2.704,258 L 257.296,258 Z" />
  </g>
</svg>
